<svg xmlns="http://www.w3.org/2000/svg" viewBox="0 0 570.46 259.77"><defs><style>.cls-1{fill:#ededed}.cls-2{fill:#bcbcbc}.cls-3{fill:#ababab}.cls-4{fill:#919191}.cls-5{fill:#a3a3a3}.cls-6{fill:#848484}.cls-7{fill:#606161}.cls-8{fill:#4c4c4d}.cls-9{fill:#9b9a9a}.cls-10{fill:#a9a8a9}.cls-11{fill:#9e9d9e}.cls-12{fill:#8e8e8e}.cls-13{fill:#dcdbdb}.cls-14{fill:#cccccb}.cls-15{fill:#c2c1c0}.cls-16{fill:#c9c9c9}.cls-17{fill:#d7d7d7}.cls-18{fill:#b6b6b6}.cls-19{fill:#adadad}.cls-20{fill:#eee;stroke:#cfcfce;stroke-miterlimit:10}.cls-21{fill:#e2e2e2}.cls-22{fill:#d3d3d1}.cls-23{fill:#c4c4c1}</style></defs><title>Asset 10</title><g id="Layer_2" data-name="Layer 2"><g id="Layer_1-2" data-name="Layer 1"><path d="M514.49,153.64V124.41H494.43V90.9h-32.8V73.79H440.24V49.55H380.35V67.37H356.11V25.31H292.66V51.69H273.41v15H245.6V28.16h-.37a33.16,33.16,0,0,0-65.56,0h-.37v10H147.21v16.4h-11.4V32.44H80.19v83.42h-27V195H27.67v52.76H542.8V153.64Z" class="cls-1"/><rect width="33.33" height="125.33" x="197.5" y="122.42" class="cls-2"/><rect width="2.27" height="108.31" x="203.98" y="139.44" class="cls-3"/><rect width="2.27" height="108.31" x="209.86" y="139.44" class="cls-3"/><rect width="2.27" height="108.31" x="215.73" y="139.44" class="cls-3"/><rect width="2.27" height="108.31" x="221.6" y="139.44" class="cls-3"/><rect width="2.27" height="108.31" x="227.48" y="139.44" class="cls-3"/><polygon points="186.47 70.12 186.47 61.79 178.42 61.79 178.42 53.12 162.8 53.12 162.8 61.79 162.8 70.12 174.73 70.12 174.73 247.75 197.5 247.75 197.5 70.12 186.47 70.12" class="cls-4"/><polygon points="162.76 70.12 162.76 61.79 162.76 53.12 143.7 53.12 143.7 61.79 135.65 61.79 135.65 70.12 125.31 70.12 125.31 247.75 174.73 247.75 174.73 70.12 162.76 70.12" class="cls-5"/><rect width="53.06" height="2.19" x="121.66" y="73.95" class="cls-4"/><rect width="3.47" height="3.34" x="130.41" y="78.19" class="cls-4"/><rect width="3.47" height="3.34" x="135.65" y="78.19" class="cls-4"/><rect width="3.47" height="3.34" x="140.89" y="78.19" class="cls-4"/><rect width="3.47" height="3.34" x="146.14" y="78.19" class="cls-4"/><rect width="3.47" height="3.34" x="151.38" y="78.19" class="cls-4"/><rect width="3.47" height="3.34" x="156.63" y="78.19" class="cls-4"/><rect width="3.47" height="3.34" x="161.87" y="78.19" class="cls-4"/><rect width="3.47" height="3.34" x="167.11" y="78.19" class="cls-4"/><rect width="3.47" height="3.34" x="178.97" y="78.19" class="cls-6"/><rect width="3.47" height="3.34" x="184.38" y="78.19" class="cls-6"/><rect width="3.47" height="3.34" x="189.79" y="78.19" class="cls-6"/><rect width="53.06" height="2.19" x="121.66" y="84.3" class="cls-4"/><rect width="3.47" height="3.34" x="130.41" y="88.54" class="cls-4"/><rect width="3.47" height="3.34" x="135.65" y="88.54" class="cls-4"/><rect width="3.47" height="3.34" x="140.89" y="88.54" class="cls-4"/><rect width="3.47" height="3.34" x="146.14" y="88.54" class="cls-4"/><rect width="3.47" height="3.34" x="151.38" y="88.54" class="cls-4"/><rect width="3.47" height="3.34" x="156.63" y="88.54" class="cls-4"/><rect width="3.47" height="3.34" x="161.87" y="88.54" class="cls-4"/><rect width="3.47" height="3.34" x="167.11" y="88.54" class="cls-4"/><rect width="26.77" height="2.19" x="174.73" y="73.95" class="cls-6"/><rect width="3.47" height="3.34" x="178.97" y="88.54" class="cls-6"/><rect width="3.47" height="3.34" x="184.38" y="88.54" class="cls-6"/><rect width="3.47" height="3.34" x="189.79" y="88.54" class="cls-6"/><rect width="26.77" height="2.19" x="174.73" y="84.3" class="cls-6"/><rect width="53.06" height="2.19" x="121.66" y="94.48" class="cls-4"/><rect width="3.47" height="3.34" x="130.41" y="98.72" class="cls-4"/><rect width="3.47" height="3.34" x="135.65" y="98.72" class="cls-4"/><rect width="3.47" height="3.34" x="140.89" y="98.72" class="cls-4"/><rect width="3.47" height="3.34" x="146.14" y="98.72" class="cls-4"/><rect width="3.47" height="3.34" x="151.38" y="98.72" class="cls-4"/><rect width="3.47" height="3.34" x="156.63" y="98.72" class="cls-4"/><rect width="3.47" height="3.34" x="161.87" y="98.72" class="cls-4"/><rect width="3.47" height="3.34" x="167.11" y="98.72" class="cls-4"/><rect width="3.47" height="3.34" x="178.97" y="98.72" class="cls-6"/><rect width="3.47" height="3.34" x="184.38" y="98.72" class="cls-6"/><rect width="3.47" height="3.34" x="189.79" y="98.72" class="cls-6"/><rect width="26.77" height="2.19" x="174.73" y="94.48" class="cls-6"/><rect width="53.06" height="2.19" x="121.66" y="104.66" class="cls-4"/><rect width="3.47" height="3.34" x="130.41" y="108.9" class="cls-4"/><rect width="3.47" height="3.34" x="135.65" y="108.9" class="cls-4"/><rect width="3.47" height="3.34" x="140.89" y="108.9" class="cls-4"/><rect width="3.47" height="3.34" x="146.14" y="108.9" class="cls-4"/><rect width="3.47" height="3.34" x="151.38" y="108.9" class="cls-4"/><rect width="3.47" height="3.34" x="156.63" y="108.9" class="cls-4"/><rect width="3.47" height="3.34" x="161.87" y="108.9" class="cls-4"/><rect width="3.47" height="3.34" x="167.11" y="108.9" class="cls-4"/><rect width="3.47" height="3.34" x="178.97" y="108.9" class="cls-6"/><rect width="3.47" height="3.34" x="184.38" y="108.9" class="cls-6"/><rect width="3.47" height="3.34" x="189.79" y="108.9" class="cls-6"/><rect width="26.77" height="2.19" x="174.73" y="104.66" class="cls-6"/><rect width="53.06" height="2.19" x="121.66" y="114.84" class="cls-4"/><rect width="3.47" height="3.34" x="130.41" y="119.08" class="cls-4"/><rect width="3.47" height="3.34" x="135.65" y="119.08" class="cls-4"/><rect width="3.47" height="3.34" x="140.89" y="119.08" class="cls-4"/><rect width="3.47" height="3.34" x="146.14" y="119.08" class="cls-4"/><rect width="3.47" height="3.34" x="151.38" y="119.08" class="cls-4"/><rect width="3.47" height="3.34" x="156.63" y="119.08" class="cls-4"/><rect width="3.47" height="3.34" x="161.87" y="119.08" class="cls-4"/><rect width="3.47" height="3.34" x="167.11" y="119.08" class="cls-4"/><rect width="3.47" height="3.34" x="178.97" y="119.08" class="cls-6"/><rect width="3.47" height="3.34" x="184.38" y="119.08" class="cls-6"/><rect width="3.47" height="3.34" x="189.79" y="119.08" class="cls-6"/><rect width="26.77" height="2.19" x="174.73" y="114.84" class="cls-6"/><rect width="53.06" height="2.19" x="121.66" y="125.02" class="cls-4"/><rect width="3.47" height="3.34" x="130.41" y="129.26" class="cls-4"/><rect width="3.47" height="3.34" x="135.65" y="129.26" class="cls-4"/><rect width="3.47" height="3.34" x="140.89" y="129.26" class="cls-4"/><rect width="3.47" height="3.34" x="146.14" y="129.26" class="cls-4"/><rect width="3.47" height="3.34" x="151.38" y="129.26" class="cls-4"/><rect width="3.47" height="3.34" x="156.63" y="129.26" class="cls-4"/><rect width="3.47" height="3.34" x="161.87" y="129.26" class="cls-4"/><rect width="3.47" height="3.34" x="167.11" y="129.26" class="cls-4"/><rect width="3.47" height="3.34" x="178.97" y="129.26" class="cls-6"/><rect width="3.47" height="3.34" x="184.38" y="129.26" class="cls-6"/><rect width="3.47" height="3.34" x="189.79" y="129.26" class="cls-6"/><rect width="26.77" height="2.19" x="174.73" y="125.02" class="cls-6"/><rect width="53.06" height="2.19" x="121.66" y="135.2" class="cls-4"/><rect width="3.47" height="3.34" x="130.41" y="139.44" class="cls-4"/><rect width="3.47" height="3.34" x="135.65" y="139.44" class="cls-4"/><rect width="3.47" height="3.34" x="140.89" y="139.44" class="cls-4"/><rect width="3.47" height="3.34" x="146.14" y="139.44" class="cls-4"/><rect width="3.47" height="3.34" x="151.38" y="139.44" class="cls-4"/><rect width="3.47" height="3.34" x="156.63" y="139.44" class="cls-4"/><rect width="3.47" height="3.34" x="161.87" y="139.44" class="cls-4"/><rect width="3.47" height="3.34" x="167.11" y="139.44" class="cls-4"/><rect width="3.47" height="3.34" x="178.97" y="139.44" class="cls-6"/><rect width="3.47" height="3.34" x="184.38" y="139.44" class="cls-6"/><rect width="3.47" height="3.34" x="189.79" y="139.44" class="cls-6"/><rect width="26.77" height="2.19" x="174.73" y="135.2" class="cls-6"/><rect width="53.06" height="2.19" x="121.66" y="145.38" class="cls-4"/><rect width="3.47" height="3.34" x="130.41" y="149.62" class="cls-4"/><rect width="3.47" height="3.34" x="135.65" y="149.62" class="cls-4"/><rect width="3.47" height="3.34" x="140.89" y="149.62" class="cls-4"/><rect width="3.47" height="3.34" x="146.14" y="149.62" class="cls-4"/><rect width="3.47" height="3.34" x="151.38" y="149.62" class="cls-4"/><rect width="3.47" height="3.34" x="156.63" y="149.62" class="cls-4"/><rect width="3.47" height="3.34" x="161.87" y="149.62" class="cls-4"/><rect width="3.47" height="3.34" x="167.11" y="149.62" class="cls-4"/><rect width="3.47" height="3.34" x="178.97" y="149.62" class="cls-6"/><rect width="3.47" height="3.34" x="184.38" y="149.62" class="cls-6"/><rect width="3.47" height="3.34" x="189.79" y="149.62" class="cls-6"/><rect width="26.77" height="2.19" x="174.73" y="145.38" class="cls-6"/><rect width="53.06" height="2.19" x="121.66" y="155.56" class="cls-4"/><rect width="3.47" height="3.34" x="130.41" y="159.8" class="cls-4"/><rect width="3.47" height="3.34" x="135.65" y="159.8" class="cls-4"/><rect width="3.47" height="3.34" x="140.89" y="159.8" class="cls-4"/><rect width="3.47" height="3.34" x="146.14" y="159.8" class="cls-4"/><rect width="3.47" height="3.34" x="151.38" y="159.8" class="cls-4"/><rect width="3.47" height="3.34" x="156.63" y="159.8" class="cls-4"/><rect width="3.47" height="3.34" x="161.87" y="159.8" class="cls-4"/><rect width="3.47" height="3.34" x="167.11" y="159.8" class="cls-4"/><rect width="3.47" height="3.34" x="178.97" y="159.8" class="cls-6"/><rect width="3.47" height="3.34" x="184.38" y="159.8" class="cls-6"/><rect width="3.47" height="3.34" x="189.79" y="159.8" class="cls-6"/><rect width="26.77" height="2.19" x="174.73" y="155.56" class="cls-6"/><rect width="53.06" height="2.19" x="121.66" y="165.74" class="cls-4"/><rect width="3.47" height="3.34" x="130.41" y="169.98" class="cls-4"/><rect width="3.47" height="3.34" x="135.65" y="169.98" class="cls-4"/><rect width="3.47" height="3.34" x="140.89" y="169.98" class="cls-4"/><rect width="3.47" height="3.34" x="146.14" y="169.98" class="cls-4"/><rect width="3.47" height="3.34" x="151.38" y="169.98" class="cls-4"/><rect width="3.47" height="3.34" x="156.63" y="169.98" class="cls-4"/><rect width="3.47" height="3.34" x="161.87" y="169.98" class="cls-4"/><rect width="3.47" height="3.34" x="167.11" y="169.98" class="cls-4"/><rect width="3.47" height="3.34" x="178.97" y="169.98" class="cls-6"/><rect width="3.47" height="3.34" x="184.38" y="169.98" class="cls-6"/><rect width="3.47" height="3.34" x="189.79" y="169.98" class="cls-6"/><rect width="26.77" height="2.19" x="174.73" y="165.74" class="cls-6"/><rect width="53.06" height="2.19" x="121.66" y="175.92" class="cls-4"/><rect width="3.47" height="3.34" x="130.41" y="180.17" class="cls-4"/><rect width="3.47" height="3.34" x="135.65" y="180.17" class="cls-4"/><rect width="3.47" height="3.34" x="140.89" y="180.17" class="cls-4"/><rect width="3.47" height="3.34" x="146.14" y="180.17" class="cls-4"/><rect width="3.47" height="3.34" x="151.38" y="180.17" class="cls-4"/><rect width="3.47" height="3.34" x="156.63" y="180.17" class="cls-4"/><rect width="3.47" height="3.34" x="161.87" y="180.17" class="cls-4"/><rect width="3.47" height="3.34" x="167.11" y="180.17" class="cls-4"/><rect width="3.47" height="3.34" x="178.97" y="180.17" class="cls-6"/><rect width="3.47" height="3.34" x="184.38" y="180.17" class="cls-6"/><rect width="3.47" height="3.34" x="189.79" y="180.17" class="cls-6"/><rect width="26.77" height="2.19" x="174.73" y="175.92" class="cls-6"/><rect width="53.06" height="2.19" x="121.66" y="186.1" class="cls-4"/><rect width="3.47" height="3.34" x="130.41" y="190.35" class="cls-4"/><rect width="3.47" height="3.34" x="135.65" y="190.35" class="cls-4"/><rect width="3.47" height="3.34" x="140.89" y="190.35" class="cls-4"/><rect width="3.47" height="3.34" x="146.14" y="190.35" class="cls-4"/><rect width="3.47" height="3.34" x="151.38" y="190.35" class="cls-4"/><rect width="3.47" height="3.34" x="156.63" y="190.35" class="cls-4"/><rect width="3.47" height="3.34" x="161.87" y="190.35" class="cls-4"/><rect width="3.47" height="3.34" x="167.11" y="190.35" class="cls-4"/><rect width="3.47" height="3.34" x="178.97" y="190.35" class="cls-6"/><rect width="3.47" height="3.34" x="184.38" y="190.35" class="cls-6"/><rect width="3.47" height="3.34" x="189.79" y="190.35" class="cls-6"/><rect width="26.77" height="2.19" x="174.73" y="186.1" class="cls-6"/><rect width="53.06" height="2.19" x="121.66" y="196.28" class="cls-4"/><rect width="3.47" height="3.34" x="130.41" y="200.53" class="cls-4"/><rect width="3.47" height="3.34" x="135.65" y="200.53" class="cls-4"/><rect width="3.47" height="3.34" x="140.89" y="200.53" class="cls-4"/><rect width="3.47" height="3.34" x="146.14" y="200.53" class="cls-4"/><rect width="3.47" height="3.34" x="151.38" y="200.53" class="cls-4"/><rect width="3.47" height="3.34" x="156.63" y="200.53" class="cls-4"/><rect width="3.47" height="3.34" x="161.87" y="200.53" class="cls-4"/><rect width="3.47" height="3.34" x="167.11" y="200.53" class="cls-4"/><rect width="3.47" height="3.34" x="178.97" y="200.53" class="cls-6"/><rect width="3.47" height="3.34" x="184.38" y="200.53" class="cls-6"/><rect width="3.47" height="3.34" x="189.79" y="200.53" class="cls-6"/><rect width="26.77" height="2.19" x="174.73" y="196.28" class="cls-6"/><rect width="53.06" height="2.19" x="121.66" y="206.46" class="cls-4"/><rect width="3.47" height="3.34" x="130.41" y="210.71" class="cls-4"/><rect width="3.47" height="3.34" x="135.65" y="210.71" class="cls-4"/><rect width="3.47" height="3.34" x="140.89" y="210.71" class="cls-4"/><rect width="3.47" height="3.34" x="146.14" y="210.71" class="cls-4"/><rect width="3.47" height="3.34" x="151.38" y="210.71" class="cls-4"/><rect width="3.47" height="3.34" x="156.63" y="210.71" class="cls-4"/><rect width="3.47" height="3.34" x="161.87" y="210.71" class="cls-4"/><rect width="3.47" height="3.34" x="167.11" y="210.71" class="cls-4"/><rect width="3.47" height="3.34" x="178.97" y="210.71" class="cls-6"/><rect width="3.47" height="3.34" x="184.38" y="210.71" class="cls-6"/><rect width="3.47" height="3.34" x="189.79" y="210.71" class="cls-6"/><rect width="26.77" height="2.19" x="174.73" y="206.46" class="cls-6"/><rect width="53.06" height="2.19" x="121.66" y="216.65" class="cls-4"/><rect width="3.47" height="3.34" x="130.41" y="220.89" class="cls-4"/><rect width="3.47" height="3.34" x="135.65" y="220.89" class="cls-4"/><rect width="3.47" height="3.34" x="140.89" y="220.89" class="cls-4"/><rect width="3.47" height="3.34" x="146.14" y="220.89" class="cls-4"/><rect width="3.47" height="3.34" x="151.38" y="220.89" class="cls-4"/><rect width="3.47" height="3.34" x="156.63" y="220.89" class="cls-4"/><rect width="3.47" height="3.34" x="161.87" y="220.89" class="cls-4"/><rect width="3.47" height="3.34" x="167.11" y="220.89" class="cls-4"/><rect width="3.47" height="3.34" x="178.97" y="220.89" class="cls-6"/><rect width="3.47" height="3.34" x="184.38" y="220.89" class="cls-6"/><rect width="3.47" height="3.34" x="189.79" y="220.89" class="cls-6"/><rect width="26.77" height="2.19" x="174.73" y="216.65" class="cls-6"/><rect width="53.06" height="2.19" x="121.66" y="226.83" class="cls-4"/><rect width="3.47" height="3.34" x="130.41" y="231.07" class="cls-4"/><rect width="3.47" height="3.34" x="135.65" y="231.07" class="cls-4"/><rect width="3.47" height="3.34" x="140.89" y="231.07" class="cls-4"/><rect width="3.47" height="3.34" x="146.14" y="231.07" class="cls-4"/><rect width="3.47" height="3.34" x="151.38" y="231.07" class="cls-4"/><rect width="3.47" height="3.34" x="156.63" y="231.07" class="cls-4"/><rect width="3.47" height="3.34" x="161.87" y="231.07" class="cls-4"/><rect width="3.47" height="3.34" x="167.11" y="231.07" class="cls-4"/><rect width="3.47" height="3.34" x="178.97" y="231.07" class="cls-6"/><rect width="3.47" height="3.34" x="184.38" y="231.07" class="cls-6"/><rect width="3.47" height="3.34" x="189.79" y="231.07" class="cls-6"/><rect width="26.77" height="2.19" x="174.73" y="226.83" class="cls-6"/><rect width="53.06" height="2.19" x="121.66" y="237.01" class="cls-4"/><rect width="3.47" height="3.34" x="130.41" y="241.25" class="cls-4"/><rect width="3.47" height="3.34" x="135.65" y="241.25" class="cls-4"/><rect width="3.47" height="3.34" x="140.89" y="241.25" class="cls-4"/><rect width="3.47" height="3.34" x="146.14" y="241.25" class="cls-4"/><rect width="3.47" height="3.34" x="151.38" y="241.25" class="cls-4"/><rect width="3.47" height="3.34" x="156.63" y="241.25" class="cls-4"/><rect width="3.47" height="3.34" x="161.87" y="241.25" class="cls-4"/><rect width="3.47" height="3.34" x="167.11" y="241.25" class="cls-4"/><rect width="3.47" height="3.34" x="178.97" y="241.25" class="cls-6"/><rect width="3.47" height="3.34" x="184.38" y="241.25" class="cls-6"/><rect width="3.47" height="3.34" x="189.79" y="241.25" class="cls-6"/><rect width="26.77" height="2.19" x="174.73" y="237.01" class="cls-6"/><rect width="42.32" height="97.59" x="291.33" y="150.16" class="cls-7"/><rect width="32.45" height="3.07" x="291.33" y="159.03" class="cls-8"/><rect width="32.45" height="3.07" x="291.33" y="166.37" class="cls-8"/><rect width="32.45" height="3.07" x="291.33" y="173.71" class="cls-8"/><rect width="32.45" height="3.07" x="291.33" y="181.04" class="cls-8"/><rect width="32.45" height="3.07" x="291.33" y="188.38" class="cls-8"/><rect width="32.45" height="3.07" x="291.33" y="195.72" class="cls-8"/><rect width="32.45" height="3.07" x="291.33" y="203.06" class="cls-8"/><rect width="32.45" height="3.07" x="291.33" y="210.39" class="cls-8"/><rect width="32.45" height="3.07" x="291.33" y="217.73" class="cls-8"/><rect width="32.45" height="3.07" x="291.33" y="225.07" class="cls-8"/><rect width="32.45" height="3.07" x="291.33" y="232.41" class="cls-8"/><rect width="27.6" height="137.67" x="373.3" y="110.08" class="cls-9"/><polygon points="400.55 93.44 393.13 93.44 393.13 80.82 373.3 80.82 373.3 93.44 373.3 107.01 400.55 107.01 400.55 93.44" class="cls-9"/><rect width="39.65" height="137.67" x="333.65" y="110.08" class="cls-10"/><polygon points="341.07 80.82 341.07 93.44 333.65 93.44 333.65 107.01 373.3 107.01 373.3 93.44 373.3 80.82 341.07 80.82" class="cls-10"/><rect width="43.91" height="3.07" x="329.39" y="107.01" class="cls-9"/><rect width="30.31" height="3.07" x="373.3" y="107.01" class="cls-6"/><rect width="31.6" height="3.98" x="337.44" y="115.08" class="cls-9"/><rect width="31.6" height="3.98" x="337.44" y="122.46" class="cls-9"/><rect width="31.6" height="3.98" x="337.44" y="129.83" class="cls-9"/><rect width="31.6" height="3.98" x="337.44" y="137.21" class="cls-9"/><rect width="31.6" height="3.98" x="337.44" y="144.59" class="cls-9"/><rect width="31.6" height="3.98" x="337.44" y="151.96" class="cls-9"/><rect width="31.6" height="3.98" x="337.44" y="159.34" class="cls-9"/><rect width="31.6" height="3.98" x="337.44" y="166.72" class="cls-9"/><rect width="31.6" height="3.98" x="337.44" y="174.09" class="cls-9"/><rect width="31.6" height="3.98" x="337.44" y="181.47" class="cls-9"/><rect width="31.6" height="3.98" x="337.44" y="188.85" class="cls-9"/><rect width="31.6" height="3.98" x="337.44" y="196.22" class="cls-9"/><rect width="31.6" height="3.98" x="337.44" y="203.6" class="cls-9"/><rect width="31.6" height="3.98" x="337.44" y="210.97" class="cls-9"/><rect width="31.6" height="3.98" x="337.44" y="218.35" class="cls-9"/><rect width="31.6" height="3.98" x="337.44" y="225.73" class="cls-9"/><rect width="31.6" height="3.98" x="337.44" y="233.1" class="cls-9"/><rect width="19.05" height="3.98" x="377.58" y="115.08" class="cls-6"/><rect width="19.05" height="3.98" x="377.58" y="122.46" class="cls-6"/><rect width="19.05" height="3.98" x="377.58" y="129.83" class="cls-6"/><rect width="19.05" height="3.98" x="377.58" y="137.21" class="cls-6"/><rect width="19.05" height="3.98" x="377.58" y="144.59" class="cls-6"/><rect width="19.05" height="3.98" x="377.58" y="151.96" class="cls-6"/><rect width="19.05" height="3.98" x="377.58" y="159.34" class="cls-6"/><rect width="19.05" height="3.98" x="377.58" y="166.72" class="cls-6"/><rect width="19.05" height="3.98" x="377.58" y="174.09" class="cls-6"/><rect width="19.05" height="3.98" x="377.58" y="181.47" class="cls-6"/><rect width="19.05" height="3.98" x="377.58" y="188.85" class="cls-6"/><rect width="19.05" height="3.98" x="377.58" y="196.22" class="cls-6"/><rect width="19.05" height="3.98" x="377.58" y="203.6" class="cls-6"/><rect width="19.05" height="3.98" x="377.58" y="210.97" class="cls-6"/><rect width="19.05" height="3.98" x="377.58" y="218.35" class="cls-6"/><rect width="19.05" height="3.98" x="377.58" y="225.73" class="cls-6"/><rect width="19.05" height="3.98" x="377.58" y="233.1" class="cls-6"/><rect width="68.8" height="57.04" x="457.48" y="190.72" class="cls-11"/><rect width="13.77" height="4.63" x="502.43" y="197.49" class="cls-12"/><rect width="13.77" height="4.63" x="502.43" y="206.29" class="cls-12"/><rect width="13.77" height="4.63" x="502.43" y="215.08" class="cls-12"/><rect width="13.77" height="4.63" x="502.43" y="223.88" class="cls-12"/><rect width="13.77" height="4.63" x="502.43" y="232.68" class="cls-12"/><rect width="13.77" height="4.63" x="484.26" y="197.49" class="cls-12"/><rect width="13.77" height="4.63" x="484.26" y="206.29" class="cls-12"/><rect width="13.77" height="4.63" x="484.26" y="215.08" class="cls-12"/><rect width="13.77" height="4.63" x="484.26" y="223.88" class="cls-12"/><rect width="13.77" height="4.63" x="484.26" y="232.68" class="cls-12"/><rect width="13.77" height="4.63" x="465.51" y="197.49" class="cls-12"/><rect width="13.77" height="4.63" x="465.51" y="206.29" class="cls-12"/><rect width="13.77" height="4.63" x="465.51" y="215.08" class="cls-12"/><rect width="13.77" height="4.63" x="465.51" y="223.88" class="cls-12"/><rect width="13.77" height="4.63" x="465.51" y="232.68" class="cls-12"/><rect width="73.78" height="3.82" x="457.48" y="186.9" class="cls-12"/><rect width="68.8" height="6.6" x="457.48" y="180.3" class="cls-11"/><rect width="33.82" height="113.94" x="400.9" y="133.81" class="cls-13"/><rect width="22.75" height="113.94" x="434.72" y="133.81" class="cls-14"/><path d="M434.72,133.81v-5.64h25.46A2.83,2.83,0,0,1,463,131h0a2.83,2.83,0,0,1-2.83,2.82Z" class="cls-15"/><rect width="33.82" height="5.64" x="400.9" y="128.17" class="cls-14"/><rect width="24.56" height="3.98" x="403.62" y="137.21" class="cls-14"/><rect width="24.56" height="3.98" x="403.62" y="144.59" class="cls-14"/><rect width="24.56" height="3.98" x="403.62" y="151.96" class="cls-14"/><rect width="24.56" height="3.98" x="403.62" y="159.34" class="cls-14"/><rect width="24.56" height="3.98" x="403.62" y="166.72" class="cls-14"/><rect width="24.56" height="3.98" x="403.62" y="174.09" class="cls-14"/><rect width="24.56" height="3.98" x="403.62" y="181.47" class="cls-14"/><rect width="24.56" height="3.98" x="403.62" y="188.85" class="cls-14"/><rect width="24.56" height="3.98" x="403.62" y="196.22" class="cls-14"/><rect width="12.28" height="3.98" x="440.46" y="137.21" class="cls-15"/><rect width="12.28" height="3.98" x="440.46" y="144.59" class="cls-15"/><rect width="12.28" height="3.98" x="440.46" y="151.96" class="cls-15"/><rect width="12.28" height="3.98" x="440.46" y="159.34" class="cls-15"/><rect width="12.28" height="3.98" x="440.46" y="166.72" class="cls-15"/><rect width="12.28" height="3.98" x="440.46" y="174.09" class="cls-15"/><rect width="12.28" height="3.98" x="440.46" y="181.47" class="cls-15"/><rect width="12.28" height="3.98" x="440.46" y="188.85" class="cls-15"/><rect width="12.28" height="3.98" x="440.46" y="196.22" class="cls-15"/><path d="M130.93,175.53c-3-4.75-6.59-7.62-12.19-7.62h0v-7h4.06V157H101.29v10.89h8.52v63.47h21.68V176.44Z" class="cls-16"/><path d="M101.29,167.91V157H76.42v3.92h4.06v7h-.9a14.34,14.34,0,0,0-12.42,7.14h0a5.94,5.94,0,0,0-.81,3v53.34h43.46V167.91Z" class="cls-17"/><rect width="48.3" height="16.37" x="49.21" y="231.38" class="cls-16"/><rect width="35" height="16.37" x="97.51" y="231.38" class="cls-18"/><rect width="10.12" height="8.19" x="102.14" y="239.57" class="cls-19"/><rect width="3.86" height="8.19" x="113.54" y="239.57" class="cls-19"/><rect width="4.86" height="8.19" x="118.6" y="239.57" class="cls-19"/><rect width="5.06" height="8.19" x="124.57" y="239.57" class="cls-19"/><rect width="29.95" height="8.62" x="58.52" y="239.13" class="cls-18"/><rect width="5.1" height="45.38" x="71.32" y="186.01" class="cls-16"/><rect width="5.1" height="45.38" x="81.41" y="186.01" class="cls-16"/><rect width="5.1" height="45.38" x="90.51" y="186.01" class="cls-16"/><rect width="5.1" height="45.38" x="99.61" y="186.01" class="cls-16"/><rect width="5.1" height="45.38" x="112.92" y="186.01" class="cls-18"/><rect width="5.1" height="45.38" x="122.76" y="186.01" class="cls-18"/><rect width="21.8" height="3.95" x="88.01" y="163.96" class="cls-16"/><rect width="11.63" height="3.95" x="101.29" y="163.96" class="cls-18"/><rect width="569.46" height="11.51" x=".5" y="247.75" class="cls-20" rx="5.76" ry="5.76"/><path d="M258.63,38.66h-1.52V54.89h-7.4v12h-3.88a6.86,6.86,0,0,0-4.07,1.33l-4.23,3.12s-.06.11,0,.11h-.19c-.09,0,0,.15,0,.15V90.21l-6.2,6.23a.14.14,0,0,0,.12.22H231V162.1l.13-.12-4.44,3.76v73.45h31.92V138.72h0V51.42h0Z" class="cls-21"/><path d="M286.24,113.54V96.66H286a.14.14,0,0,0,.13-.22l-3.8-6.23V71.57a.15.15,0,0,0-.15-.15h-.05a.06.06,0,0,0,0-.11l-4.26-3.12a6.86,6.86,0,0,0-4.07-1.33H270.6v-12H260.48V38.66h-1.82V51.42h0V239.19h32.71V108.9Z" class="cls-22"/><rect width="31.92" height="8.56" x="226.7" y="239.19" class="cls-22"/><rect width="22.86" height="3.34" x="230.83" y="231.07" class="cls-22"/><rect width="22.86" height="3.34" x="230.83" y="225.15" class="cls-22"/><rect width="22.86" height="3.34" x="230.83" y="219.24" class="cls-22"/><rect width="22.86" height="3.34" x="230.83" y="212.33" class="cls-22"/><rect width="22.86" height="3.34" x="230.83" y="206.41" class="cls-22"/><rect width="22.86" height="3.34" x="230.83" y="200.5" class="cls-22"/><rect width="22.86" height="3.34" x="230.83" y="193.58" class="cls-22"/><rect width="22.86" height="3.34" x="230.83" y="187.67" class="cls-22"/><rect width="22.86" height="3.34" x="230.83" y="181.75" class="cls-22"/><rect width="22.86" height="3.34" x="230.83" y="175.84" class="cls-22"/><rect width="22.86" height="3.34" x="230.83" y="168.93" class="cls-22"/><rect width="15.72" height="3.34" x="237.97" y="163.15" class="cls-22"/><rect width="7.86" height="3.34" x="245.83" y="156.65" class="cls-22"/><rect width="3.03" height="2.21" x="250.66" y="151.29" class="cls-22"/><rect width="22.86" height="3.34" x="263.38" y="142.96" class="cls-23"/><rect width="22.86" height="3.34" x="263.38" y="150.16" class="cls-23"/><rect width="22.86" height="3.34" x="263.38" y="157.36" class="cls-23"/><rect width="22.86" height="3.34" x="263.38" y="164.56" class="cls-23"/><rect width="22.86" height="3.34" x="263.38" y="171.76" class="cls-23"/><rect width="22.86" height="3.34" x="263.38" y="178.96" class="cls-23"/><rect width="22.86" height="3.34" x="263.38" y="186.16" class="cls-23"/><rect width="22.86" height="3.34" x="263.38" y="193.36" class="cls-23"/><rect width="22.86" height="3.34" x="263.38" y="200.56" class="cls-23"/><rect width="22.86" height="3.34" x="263.38" y="207.76" class="cls-23"/><rect width="22.86" height="3.34" x="263.38" y="214.96" class="cls-23"/><rect width="22.86" height="3.34" x="263.38" y="222.16" class="cls-23"/><rect width="22.86" height="3.34" x="263.38" y="229.36" class="cls-23"/><rect width="15.72" height="3.34" x="270.52" y="137.18" class="cls-23"/><rect width="7.86" height="3.34" x="278.38" y="130.69" class="cls-23"/><rect width="3.03" height="2.21" x="283.21" y="125.33" class="cls-23"/><rect width="32.71" height="8.56" x="258.62" y="239.19" class="cls-23"/><polygon points="235.46 103.98 239.93 103.98 239.93 154.55 235.46 158.32 235.46 103.98" class="cls-22"/><polygon points="242.58 103.98 247.05 103.98 247.05 148.62 242.58 152.4 242.58 103.98" class="cls-22"/><polygon points="249.71 103.98 254.17 103.98 254.17 142.53 249.71 146.3 249.71 103.98" class="cls-22"/><polygon points="263.38 103.98 268.25 103.98 268.25 129.94 263.38 134.38 263.38 103.98" class="cls-23"/><polygon points="270.52 103.98 275.39 103.98 275.39 123.45 270.52 127.89 270.52 103.98" class="cls-23"/><polygon points="277.66 103.98 282.52 103.98 282.52 116.96 277.66 121.4 277.66 103.98" class="cls-23"/><rect width="12.71" height="3.6" x="263.38" y="76.14" class="cls-23"/><rect width="12.71" height="3.6" x="263.38" y="82.86" class="cls-23"/><rect width="12.71" height="3.6" x="241.61" y="76.14" class="cls-22"/><rect width="12.71" height="3.6" x="241.61" y="82.86" class="cls-22"/></g></g></svg>