<svg xmlns="http://www.w3.org/2000/svg" viewBox="0 0 28.17 43.9"><defs><style>.cls-1,.cls-2{fill:#fff}.cls-2,.cls-3{opacity:.65}.cls-3{fill:#6f59a6}</style></defs><title>Asset 7</title><g id="Layer_2" data-name="Layer 2"><g id="Layer_1-2" data-name="Layer 1"><polygon points="0 23.81 12.44 43.9 13.32 32.9 0 23.81" class="cls-1"/><polygon points="27.93 26.06 12.44 43.9 13.32 32.9 27.93 26.06" class="cls-2"/><polygon points="27.93 26.06 12.44 43.9 13.32 32.9 27.93 26.06" class="cls-1"/><polygon points="13.57 29.85 28.17 23.07 14.68 16.02 .24 20.82 13.57 29.85" class="cls-2"/><polygon points="15.97 0 13.57 29.85 .24 20.82 15.97 0" class="cls-1"/><polygon points="13.57 29.85 14.68 16.02 28.17 23.07 13.57 29.85" class="cls-2"/><polygon points="15.97 0 13.57 29.85 28.17 23.07 15.97 0" class="cls-2"/><polygon points="15.97 0 13.57 29.85 28.17 23.07 15.97 0" class="cls-1"/><polygon points="0 23.81 12.44 43.9 13.32 32.9 0 23.81" class="cls-3"/><polygon points="27.93 26.06 12.44 43.9 13.32 32.9 27.93 26.06" class="cls-3"/><polygon points="27.93 26.06 12.44 43.9 13.32 32.9 27.93 26.06" class="cls-3"/><polygon points="13.57 29.85 28.17 23.07 14.68 16.02 .24 20.82 13.57 29.85" class="cls-3"/><polygon points="15.97 0 13.57 29.85 .24 20.82 15.97 0" class="cls-3"/><polygon points="13.57 29.85 14.68 16.02 28.17 23.07 13.57 29.85" class="cls-3"/><polygon points="15.97 0 13.57 29.85 28.17 23.07 15.97 0" class="cls-3"/><polygon points="15.97 0 13.57 29.85 28.17 23.07 15.97 0" class="cls-3"/></g></g></svg>