<svg xmlns="http://www.w3.org/2000/svg" width="375" height="250" fill="none" viewBox="0 0 375 250"><rect width="375" height="250" fill="#fff"/><g clip-path="url(#clip0)"><path stroke="#DFE3EB" stroke-linecap="round" stroke-linejoin="round" stroke-miterlimit="10" stroke-width="3" d="M304.015 159.093H242.938V175.16H304.015V159.093Z"/><path stroke="#DFE3EB" stroke-linecap="round" stroke-linejoin="round" stroke-miterlimit="10" stroke-width="3" d="M304.015 136.773H242.938V152.841H304.015V136.773Z"/><path stroke="#DFE3EB" stroke-linecap="round" stroke-linejoin="round" stroke-miterlimit="10" stroke-width="3" d="M304.015 114.453H242.938V130.521H304.015V114.453Z"/><path stroke="#DFE3EB" stroke-linecap="round" stroke-linejoin="round" stroke-miterlimit="10" stroke-width="3" d="M239.572 92.1337C241.554 93.016 242.949 94.9985 242.949 97.3188V108.201H304.026V92.1337H239.572Z"/><path stroke="#DFE3EB" stroke-linecap="round" stroke-linejoin="round" stroke-miterlimit="10" stroke-width="3" d="M132.711 159.093H71.6339V175.16H132.711V159.093Z"/><path stroke="#DFE3EB" stroke-linecap="round" stroke-linejoin="round" stroke-miterlimit="10" stroke-width="3" d="M132.711 136.773H71.6339V152.841H132.711V136.773Z"/><path stroke="#DFE3EB" stroke-linecap="round" stroke-linejoin="round" stroke-miterlimit="10" stroke-width="3" d="M132.711 114.453H71.6339V130.521H132.711V114.453Z"/><path stroke="#DFE3EB" stroke-linecap="round" stroke-linejoin="round" stroke-miterlimit="10" stroke-width="3" d="M132.711 97.3188C132.711 95.0094 134.095 93.0269 136.088 92.1337H71.6339V108.201H132.711V97.3188Z"/><path stroke="#DFE3EB" stroke-linecap="round" stroke-linejoin="round" stroke-miterlimit="10" stroke-width="3" d="M215.673 69.8137H190.956V85.881H215.673V69.8137Z"/><path stroke="#DFE3EB" stroke-linecap="round" stroke-linejoin="round" stroke-miterlimit="10" stroke-width="3" d="M304.026 69.8137H229.311V85.881H304.026V69.8137Z"/><path stroke="#DFE3EB" stroke-linecap="round" stroke-linejoin="round" stroke-miterlimit="10" stroke-width="3" d="M215.673 58.4741C215.673 54.5852 214.921 50.8816 213.57 47.5048H190.956V63.572H215.673V58.4741Z"/><path stroke="#DFE3EB" stroke-linecap="round" stroke-linejoin="round" stroke-miterlimit="10" stroke-width="3" d="M227.927 47.4939C228.82 51.0015 229.3 54.6724 229.3 58.4632V63.5611H304.015V47.4939H227.927Z"/><path stroke="#DFE3EB" stroke-linecap="round" stroke-linejoin="round" stroke-miterlimit="10" stroke-width="3" d="M146.349 69.8137H71.6339V85.881H146.349V69.8137Z"/><path stroke="#DFE3EB" stroke-linecap="round" stroke-linejoin="round" stroke-miterlimit="10" stroke-width="3" d="M184.703 69.8137H159.987V85.881H184.703V69.8137Z"/><path stroke="#DFE3EB" stroke-linecap="round" stroke-linejoin="round" stroke-miterlimit="10" stroke-width="3" d="M146.349 58.4742C146.349 54.6834 146.829 51.0015 147.722 47.5049H71.6339V63.5721H146.349V58.4742Z"/><path stroke="#DFE3EB" stroke-linecap="round" stroke-linejoin="round" stroke-miterlimit="10" stroke-width="3" d="M159.987 58.4741V63.572H184.703V47.4939H162.089C160.739 50.8816 159.987 54.5853 159.987 58.4741Z"/><path stroke="#DFE3EB" stroke-dasharray="3.27 3.27" stroke-linecap="round" stroke-linejoin="round" stroke-miterlimit="10" stroke-width="3" d="M81.5791 55.533H146.349"/><path stroke="#DFE3EB" stroke-dasharray="3.27 3.27" stroke-linecap="round" stroke-linejoin="round" stroke-miterlimit="10" stroke-width="3" d="M81.5791 77.8528H123.626"/><path stroke="#DFE3EB" stroke-dasharray="3.27 3.27" stroke-linecap="round" stroke-linejoin="round" stroke-miterlimit="10" stroke-width="3" d="M81.5791 100.173H131.578"/><path stroke="#DFE3EB" stroke-dasharray="3.27 3.27" stroke-linecap="round" stroke-linejoin="round" stroke-miterlimit="10" stroke-width="3" d="M81.5791 122.482H123.06"/><path stroke="#DFE3EB" stroke-dasharray="3.27 3.27" stroke-linecap="round" stroke-linejoin="round" stroke-miterlimit="10" stroke-width="3" d="M81.5791 144.801H131.578"/><path stroke="#DFE3EB" stroke-dasharray="3.27 3.27" stroke-linecap="round" stroke-linejoin="round" stroke-miterlimit="10" stroke-width="3" d="M81.5791 167.121H132.711"/><path stroke="#DFE3EB" stroke-dasharray="3.27 3.27" stroke-linecap="round" stroke-linejoin="round" stroke-miterlimit="10" stroke-width="3" d="M200.901 55.2715H214.529"/><path stroke="#DFE3EB" stroke-dasharray="3.27 3.27" stroke-linecap="round" stroke-linejoin="round" stroke-miterlimit="10" stroke-width="3" d="M229.311 55.533H288.395"/><path stroke="#DFE3EB" stroke-dasharray="3.27 3.27" stroke-linecap="round" stroke-linejoin="round" stroke-miterlimit="10" stroke-width="3" d="M200.901 77.8528H270.78"/><path stroke="#DFE3EB" stroke-dasharray="3.27 3.27" stroke-linecap="round" stroke-linejoin="round" stroke-miterlimit="10" stroke-width="3" d="M242.938 100.173H279.876"/><path stroke="#DFE3EB" stroke-dasharray="3.27 3.27" stroke-linecap="round" stroke-linejoin="round" stroke-miterlimit="10" stroke-width="3" d="M242.938 122.896H290.671"/><path stroke="#DFE3EB" stroke-dasharray="3.27 3.27" stroke-linecap="round" stroke-linejoin="round" stroke-miterlimit="10" stroke-width="3" d="M241.805 144.801H299.19"/><path stroke="#DFE3EB" stroke-dasharray="3.27 3.27" stroke-linecap="round" stroke-linejoin="round" stroke-miterlimit="10" stroke-width="3" d="M242.938 167.121H273.057"/><path fill="#BBDBFC" d="M159.987 75.184L146.349 90.3906V91.6324H159.987V75.184Z"/><path fill="#BBDBFC" d="M229.311 91.0661V58.1147C229.311 57.2868 229.278 56.4589 229.234 55.642L215.673 75.3584V91.0661H229.311Z"/><path fill="#BBDBFC" d="M242.938 185.955V100.587L222.481 130.608V191.641H237.252C240.4 191.631 242.938 189.092 242.938 185.955Z"/><path stroke="#0C6CF2" stroke-linecap="round" stroke-linejoin="round" stroke-miterlimit="10" stroke-width="3" d="M222.491 191.631H138.157C135.151 191.631 132.711 189.19 132.711 186.184V97.079C132.711 94.0725 135.151 91.6324 138.157 91.6324H222.48V191.631H222.491Z"/><path stroke="#0C6CF2" stroke-linecap="round" stroke-linejoin="round" stroke-miterlimit="10" stroke-width="3" d="M222.492 191.631H237.502C240.509 191.631 242.949 189.19 242.949 186.184V97.079C242.949 94.0725 240.509 91.6324 237.502 91.6324H222.492V191.631Z"/><path stroke="#0C6CF2" stroke-linecap="round" stroke-linejoin="round" stroke-miterlimit="10" stroke-width="3" d="M222.491 91.6325H229.311V58.1146C229.311 35.2065 210.738 16.6339 187.83 16.6339C164.922 16.6339 146.349 35.2065 146.349 58.1146V91.6325H159.987V58.1146C159.987 42.7336 172.449 30.272 187.83 30.272C203.211 30.272 215.672 42.7336 215.672 58.1146V91.6325H222.491Z"/><path fill="#0C6CF2" d="M178.734 122.449C172.787 122.449 167.939 127.296 167.939 133.244C167.939 136.904 169.769 140.259 172.787 142.252V156.283C172.787 157.219 173.549 157.982 174.486 157.982H182.972C183.909 157.982 184.671 157.219 184.671 156.283V142.252C187.689 140.259 189.519 136.904 189.519 133.244C189.529 127.296 184.693 122.449 178.734 122.449Z"/><path stroke="#0C6CF2" stroke-linecap="round" stroke-linejoin="round" stroke-miterlimit="10" stroke-width="3" d="M108.278 191.63H267.371"/><path stroke="#0C6CF2" stroke-linecap="round" stroke-linejoin="round" stroke-miterlimit="10" stroke-width="3" d="M116.808 184.546H132.712"/><path stroke="#0C6CF2" stroke-linecap="round" stroke-linejoin="round" stroke-miterlimit="10" stroke-width="3" d="M242.938 184.546H258.852"/><path stroke="#0C6CF2" stroke-linecap="round" stroke-linejoin="round" stroke-miterlimit="10" stroke-width="3" d="M120.783 198.726H256.01"/></g><defs><clipPath id="clip0"><rect width="235.66" height="187.36" x="70" y="15" fill="#fff"/></clipPath></defs></svg>